{
  "asset": {
    "version": "2.0",
    "generator": "THREE.GLTFExporter"
  },
  "scenes": [
    {
      "nodes": [0]
    }
  ],
  "scene": 0,
  "nodes": [
    {
      "children": [7],
      "matrix": [0.01, 0, 0, 0, 0, 0.01, 0, 0, 0, 0, 0.01, 0, 0, 0, 0, 1]
    },
    {
      "matrix": [
        1, 0, 0, 0, 0, 1, -6.394884621840902e-17, 0, 0, 6.394884621840902e-17,
        1, 0, 27.20023768285166, -36.488123720898464, 0, 1
      ],
      "name": "Camera",
      "camera": 0
    },
    {
      "matrix": [1, 0, 0, 0, 0, 1, 0, 0, 0, 0, 1, 0, 0, 0, 0, 1],
      "name": "Shape 0",
      "mesh": 0
    },
    {
      "matrix": [
        1, 0, 2.4492935982947064e-16, 0, 0, 1, 0, 0, -2.4492935982947064e-16, 0,
        1, 0, 60, -60, 11.5, 1
      ],
      "name": "Group",
      "children": [2]
    },
    {
      "matrix": [
        0.5883484054145521, 0.39223227027636803, -0.7071067811865475, 0,
        -0.554700196225229, 0.8320502943378437, 0, 0, 0.588348405414552,
        0.392232270276368, 0.7071067811865476, 0, 0, 0, 0, 1
      ],
      "name": "Directional Light",
      "extensions": {
        "KHR_lights_punctual": {
          "light": 0
        }
      }
    },
    {
      "matrix": [
        0.9676523655536327, -2.9763275623609364e-8, -0.25228733507343964, 0,
        0.01291030816416316, 0.9986898078709003, 0.04951758877298494, 0,
        0.2519567887189493, -0.05117291915440447, 0.9663845554248327, 0,
        365.6968227052664, -94.45514926971362, 1012.6445996326551, 1
      ],
      "name": "Personal Camera",
      "camera": 1
    },
    {
      "matrix": [1, 0, 0, 0, 0, 1, 0, 0, 0, 0, 1, 0, 0, 1, 0, 1],
      "name": "Default Ambient Light"
    },
    {
      "name": "Scene 1",
      "children": [1, 3, 4, 5, 6]
    }
  ],
  "cameras": [
    {
      "type": "orthographic",
      "orthographic": {
        "xmag": 5.7319525263374995,
        "ymag": 3.161198355092383,
        "zfar": 100000,
        "znear": 0
      },
      "name": "Camera"
    },
    {
      "type": "orthographic",
      "orthographic": {
        "xmag": 5.7319525263374995,
        "ymag": 3.161198355092383,
        "zfar": 100000,
        "znear": 0
      },
      "name": "Camera"
    }
  ],
  "bufferViews": [
    {
      "buffer": 0,
      "byteOffset": 0,
      "byteLength": 2400,
      "target": 34962,
      "byteStride": 12
    },
    {
      "buffer": 0,
      "byteOffset": 2400,
      "byteLength": 2400,
      "target": 34962,
      "byteStride": 12
    },
    {
      "buffer": 0,
      "byteOffset": 4800,
      "byteLength": 1600,
      "target": 34962,
      "byteStride": 8
    },
    {
      "buffer": 0,
      "byteOffset": 6400,
      "byteLength": 2256,
      "target": 34963
    }
  ],
  "buffers": [
    {
      "byteLength": 8656,
      "uri": "data:application/octet-stream;base64,"
    }
  ],
  "accessors": [
    {
      "bufferView": 0,
      "componentType": 5126,
      "count": 200,
      "max": [120, 0, 23],
      "min": [0, -120, 0],
      "type": "VEC3"
    },
    {
      "bufferView": 1,
      "componentType": 5126,
      "count": 200,
      "max": [0.9987918734550476, 0.9987918734550476, 1],
      "min": [-0.9987918734550476, -0.9987918734550476, -1],
      "type": "VEC3"
    },
    {
      "bufferView": 2,
      "componentType": 5126,
      "count": 200,
      "max": [1, 1],
      "min": [0, 0],
      "type": "VEC2"
    },
    {
      "bufferView": 3,
      "componentType": 5125,
      "count": 564,
      "max": [199],
      "min": [0],
      "type": "SCALAR"
    }
  ],
  "meshes": [
    {
      "primitives": [
        {
          "mode": 4,
          "attributes": {
            "POSITION": 0,
            "NORMAL": 1,
            "TEXCOORD_0": 2
          },
          "extras": {
            "parameters": {
              "width": 120,
              "subdivisions": 12,
              "roundness": 0,
              "extrudeBevelSize": 0,
              "extrudeBevelSegments": 1,
              "windingRule": 0,
              "shape": {
                "points": [
                  {
                    "fi": 0,
                    "id": "330d0d23-d3c3-4257-a207-43a56037f642",
                    "data": {
                      "roundness": 0,
                      "position": [0, -60],
                      "areControlsDirectionsMirrored": true,
                      "controlPrevious": {
                        "position": [38.1371, -60]
                      },
                      "controlNext": {
                        "position": [38.1371, -60]
                      }
                    }
                  },
                  {
                    "fi": 1,
                    "id": "d77e5f8c-92c6-4f87-90e7-b4e36ab0f251",
                    "data": {
                      "roundness": 0,
                      "position": [60, 0],
                      "areControlsDirectionsMirrored": true,
                      "controlPrevious": {
                        "position": [60, -38.1371]
                      },
                      "controlNext": {
                        "position": [60, -38.1371]
                      }
                    }
                  },
                  {
                    "fi": 2,
                    "id": "d74203de-6fed-4238-b6f3-027d92ac4b0c",
                    "data": {
                      "roundness": 0,
                      "position": [120, -60],
                      "areControlsDirectionsMirrored": true,
                      "controlPrevious": {
                        "position": [81.8629, -60]
                      },
                      "controlNext": {
                        "position": [81.8629, -60]
                      }
                    }
                  },
                  {
                    "fi": 3,
                    "id": "856d6cb2-a743-496a-b73c-72a49e2d5201",
                    "data": {
                      "roundness": 0,
                      "position": [60, -120],
                      "areControlsDirectionsMirrored": true,
                      "controlPrevious": {
                        "position": [60, -81.8629]
                      },
                      "controlNext": {
                        "position": [60, -81.8629]
                      }
                    }
                  }
                ],
                "isClosed": true,
                "roundness": 0,
                "shapeHoles": []
              },
              "type": "VectorGeometry",
              "height": 120,
              "depth": 23
            },
            "shape": {
              "points": [
                0, -60, 38.1371, -60, 38.1371, -60, 0, 60, 0, 60, -38.1371, 60,
                -38.1371, 0, 120, -60, 81.8629, -60, 81.8629, -60, 0, 60, -120,
                60, -81.8629, 60, -81.8629, 0
              ],
              "shapeHoles": [],
              "isClosed": true,
              "roundness": 0
            },
            "type": "VectorGeometry"
          },
          "indices": 3
        }
      ]
    }
  ],
  "extensions": {
    "KHR_lights_punctual": {
      "lights": [
        {
          "name": "Directional Light",
          "color": [1, 1, 1],
          "intensity": 0.7,
          "type": "directional"
        }
      ]
    }
  },
  "extensionsUsed": ["KHR_lights_punctual"]
}
