<svg width="16" height="16" viewBox="0 0 16 16" fill="none" xmlns="http://www.w3.org/2000/svg">
<g clip-path="url(#clip0_2015_3323)">
<path d="M6.58675 6.58651C6.39025 6.76961 6.23265 6.99041 6.12334 7.23574C6.01402 7.48107 5.95524 7.74591 5.95051 8.01445C5.94577 8.28299 5.99517 8.54973 6.09576 8.79877C6.19635 9.0478 6.34607 9.27403 6.53598 9.46394C6.7259 9.65386 6.95212 9.80358 7.20116 9.90417C7.45019 10.0048 7.71694 10.0542 7.98548 10.0494C8.25402 10.0447 8.51885 9.9859 8.76419 9.87659C9.00952 9.76728 9.23032 9.60967 9.41342 9.41317M7.15348 3.38659C7.43436 3.35159 7.71711 3.33378 8.00015 3.33325C12.6668 3.33325 14.6668 7.99992 14.6668 7.99992C14.3688 8.638 13.995 9.23787 13.5535 9.78659M4.40683 4.40666C3.081 5.30974 2.02008 6.55016 1.3335 7.99999C1.3335 7.99999 3.3335 12.6667 8.00016 12.6667C9.27744 12.6701 10.5274 12.2967 11.5935 11.5933M1.3335 1.33325L14.6668 14.6666" stroke="#FAFAFA" stroke-linecap="round" stroke-linejoin="round"/>
</g>
<defs>
<clipPath id="clip0_2015_3323">
<rect width="16" height="16" fill="white"/>
</clipPath>
</defs>
</svg>
