<svg viewBox="0 0 40 40" fill="none" xmlns="http://www.w3.org/2000/svg">
<path fill-rule="evenodd" clip-rule="evenodd" d="M23.0258 21.4036C22.9808 21.3434 22.9706 21.2611 22.9974 21.1749L24.682 15.7469C24.7088 15.6606 24.7704 15.5774 24.8532 15.5155L25.264 15.2087C25.4364 15.0799 25.6521 15.077 25.7456 15.2023L26.0931 15.6675C26.138 15.7277 26.1482 15.8099 26.1215 15.8962L25.0944 19.2054C25.0676 19.2917 25.0061 19.3749 24.9233 19.4368L24.53 19.7305C24.3576 19.8593 24.2937 20.0653 24.3872 20.1905L25.997 22.3456C26.0906 22.4709 26.3062 22.4681 26.4787 22.3393L30.0084 19.7028C30.1808 19.574 30.2447 19.368 30.1511 19.2427L29.6961 18.6335C29.6511 18.5733 29.6409 18.4911 29.6677 18.4048L30.8606 14.5612C30.8606 14.5612 30.8606 14.5612 30.8607 14.5611V14.5611C30.8607 14.5611 30.8607 14.5611 30.8607 14.5611L29.1669 12.2934C29.1669 12.2934 29.1669 12.2934 29.1669 12.2934V12.2934C29.1669 12.2934 29.1669 12.2934 29.1669 12.2934L29.037 12.1194C28.9644 12.0222 28.7971 12.0244 28.6633 12.1244L25.252 14.6724C25.0795 14.8012 24.8639 14.804 24.7703 14.6788L23.2516 12.6455C23.2516 12.6455 23.2516 12.6455 23.2516 12.6455V12.6455C23.2516 12.6455 23.2516 12.6454 23.2516 12.6454L23.1245 12.4752C23.054 12.3808 22.8916 12.383 22.7617 12.48L19.1848 15.1517C19.0123 15.2805 18.7967 15.2834 18.7031 15.1581L17.2487 13.2109C17.2481 13.2102 17.2485 13.2089 17.2496 13.2081V13.2081C17.2507 13.2073 17.251 13.206 17.2505 13.2052L17.1241 13.0361C17.0538 12.9419 16.8916 12.944 16.762 13.0409L11.8659 16.6979C11.7362 16.7948 11.6882 16.9496 11.7585 17.0438V17.0438C11.8289 17.138 11.991 17.1359 12.1207 17.0391L13.3447 16.1248C13.5172 15.996 13.7328 15.9931 13.8264 16.1184L14.1917 16.6075C14.2366 16.6676 14.2468 16.7499 14.2201 16.8362L11.4505 25.7599C11.4237 25.8462 11.3621 25.9294 11.2793 25.9913L11.0753 26.1436C10.9029 26.2724 10.839 26.4784 10.9326 26.6037L12.5423 28.7588C12.6359 28.8841 12.8515 28.8812 13.024 28.7524L16.6005 26.0809C16.773 25.9521 16.8369 25.7461 16.7433 25.6209L16.1601 24.8401C16.1152 24.7799 16.105 24.6976 16.1318 24.6114L18.7758 16.0922C18.8026 16.0059 18.8641 15.9227 18.9469 15.8608L19.3487 15.5608C19.5211 15.432 19.7368 15.4291 19.8303 15.5544L20.1746 16.0153C20.2195 16.0754 20.2297 16.1577 20.2029 16.244L18.3431 22.2364C18.3163 22.3227 18.2548 22.4059 18.172 22.4678L18.04 22.5664C17.8675 22.6952 17.8036 22.9012 17.8972 23.0264L19.5069 25.1815C19.6005 25.3068 19.8161 25.304 19.9886 25.1752L23.4341 22.6015C23.6066 22.4727 23.6705 22.2667 23.5769 22.1415L23.0258 21.4036Z" fill="#E5E5E5"/>
</svg>
